#!OML:ASF H:\ManfredObstacles\Project 1\Capture day 1\Session 1\Male.ASF
:FULLY-SPECIFIED
:DEGREES
451
root 1.33526 16.4462 -25.0901 -172.277 -14.0718 -171.079
lowerback -12.4439 -4.43089 4.71734
upperback 0.336672 -7.38863 5.47138
thorax 7.49529 -3.69274 1.76522
lowerneck 3.62137 -2.42063 -6.90837
upperneck -5.87626 -3.12023 7.55427
head -2.31011 -1.58326 3.83797
rclavicle -1.71452e-014 4.65156e-014
rhumerus -40.6666 -26.2297 -68.774
rradius 25.1964
rwrist 36.6388
rhand 1.30483 -7.17105
rfingers 7.12502
rthumb 26.8396 -35.2862
lclavicle -1.71452e-014 4.65156e-014
lhumerus -34.5017 40.011 73.0164
lradius 12.5882
lwrist -51.9065
lhand -13.248 7.31834
lfingers 7.12502
lthumb 12.8541 36.9025
rfemur -31.1723 -5.2904 30.69
rtibia 21.6233
rfoot -8.47264 11.1458
rtoes -0.029512
lfemur 1.18577 -6.8098 -7.88299
ltibia 19.2049
lfoot -3.26426 -16.8535
ltoes 5.93143
452
root 1.38365 16.4689 -25.2389 -172.368 -14.1661 -171.352
lowerback -12.1794 -4.50837 4.31695
upperback 0.320887 -7.3816 5.36819
thorax 7.36135 -3.69828 1.90032
lowerneck 3.58498 -2.46676 -6.78314
upperneck -6.20012 -3.1411 7.633
head -2.41023 -1.59156 3.84928
rclavicle 1.49089e-016 4.77083e-015
rhumerus -39.9106 -24.6393 -70.22
rradius 26.1929
rwrist 34.9203
rhand 1.32216 -7.36777
rfingers 7.12502
rthumb 26.8561 -35.4804
lclavicle 1.49089e-016 4.77083e-015
lhumerus -35.6083 40.6234 71.625
lradius 12.3049
lwrist -52.8713
lhand -12.7775 7.33814
lfingers 7.12502
lthumb 13.3077 36.8932
rfemur -30.508 -5.60934 30.6783
rtibia 21.7417
rfoot -9.04177 11.5323
rtoes 2.35894
lfemur 1.68289 -6.74821 -7.81923
ltibia 19.2457
lfoot -1.96993 -16.7168
ltoes 3.90998
453
root 1.42964 16.4851 -25.3845 -172.522 -14.2495 -171.574
lowerback -11.8883 -4.56931 4.0069
upperback 0.295876 -7.36858 5.2678
thorax 7.1921 -3.69908 1.99301
lowerneck 3.70981 -2.55988 -6.59326
upperneck -6.58717 -3.23932 7.56372
head -2.55792 -1.63988 3.80405
rclavicle 2.17669e-014 -2.5842e-014
rhumerus -39.2642 -23.0144 -71.5741
rradius 27.2283
rwrist 33.1725
rhand 1.2206 -7.62945
rfingers 7.12502
rthumb 26.759 -35.7569
lclavicle 2.17669e-014 -2.5842e-014
lhumerus -36.4954 40.7669 70.5608
lradius 12.0582
lwrist -53.7456
lhand -12.5196 7.3077
lfingers 7.12502
lthumb 13.5563 36.8464
rfemur -29.8103 -6.02855 30.7243
rtibia 21.9131
rfoot -9.73287 11.992
rtoes 4.67652
lfemur 2.2652 -6.75865 -7.72967
ltibia 19.2025
lfoot -0.862866 -16.7046
ltoes 1.88058
454
root 1.47033 16.4958 -25.522 -172.652 -14.2815 -171.763
lowerback -11.6273 -4.59998 3.84148
upperback 0.303243 -7.33989 5.14039
thorax 7.05307 -3.68472 1.97746
lowerneck 3.60589 -2.58772 -6.62104
upperneck -6.86061 -3.24063 7.67377
head -2.62899 -1.63483 3.8529
rclavicle 2.59414e-014 -1.86858e-014
rhumerus -38.6445 -21.73 -72.7698
rradius 28.2494
rwrist 31.7811
rhand 1.08435 -7.88352
rfingers 7.12502
rthumb 26.6286 -36.0309
lclavicle 2.59414e-014 -1.86858e-014
lhumerus -37.0446 40.8159 69.7184
lradius 11.8095
lwrist -54.6669
lhand -12.5497 7.14351
lfingers 7.12502
lthumb 13.5273 36.6841
rfemur -29.1594 -6.18853 30.6831
rtibia 22.0952
rfoot -10.5167 12.3742
rtoes 7.27431
lfemur 2.81165 -6.84798 -7.65053
ltibia 19.1478
lfoot 0.263741 -16.6878
ltoes 1.94063
455
root 1.50426 16.5112 -25.6473 -172.233 -14.2032 -171.835
lowerback -11.9311 -4.54332 3.93762
upperback 0.210239 -7.27826 5.02745
thorax 7.0961 -3.64433 1.79508
lowerneck 3.38821 -2.64393 -6.66479
upperneck -7.08758 -3.26693 7.87151
head -2.65985 -1.64109 3.93188
rclavicle -5.01931e-015 3.02153e-014
rhumerus -37.9841 -20.7011 -73.8563
rradius 29.117
rwrist 30.5332
rhand 0.84676 -7.90656
rfingers 7.12502
rthumb 26.4012 -36.0883
lclavicle -5.01931e-015 3.02153e-014
lhumerus -37.5416 41.2922 68.7133
lradius 11.6118
lwrist -55.9998
lhand -12.7786 6.94419
lfingers 7.12502
lthumb 13.3066 36.4994
rfemur -29.2867 -6.43306 30.9166
rtibia 22.2593
rfoot -10.797 13.1393
rtoes 9.35553
lfemur 2.73226 -6.95652 -7.44828
ltibia 19.13
lfoot 1.29047 -16.5246
ltoes 2.04296
456
root 1.53674 16.5293 -25.7636 -171.46 -14.0518 -171.831
lowerback -12.6241 -4.42758 4.12843
upperback 0.0292951 -7.1929 4.97266
thorax 7.26171 -3.59229 1.5968
lowerneck 3.19466 -2.68321 -6.66784
upperneck -7.29388 -3.2855 7.89836
head -2.691 -1.64149 3.94226
rclavicle -9.0447e-015 -8.5875e-014
rhumerus -37.3503 -19.8346 -74.747
rradius 29.8104
rwrist 29.4093
rhand 0.448601 -7.68858
rfingers 7.12502
rthumb 26.02 -35.9269
lclavicle -9.0447e-015 -8.5875e-014
lhumerus -37.7649 41.3679 68.2278
lradius 11.6013
lwrist -56.7471
lhand -13.1286 6.909
lfingers 7.12502
lthumb 12.9693 36.4859
rfemur -29.8529 -6.55231 31.3046
rtibia 22.4293
rfoot -10.8238 13.8219
rtoes 9.94958
lfemur 2.22707 -7.04957 -7.1545
ltibia 19.1248
lfoot 2.18278 -16.2628
ltoes 1.49367
457
root 1.56881 16.5391 -25.872 -170.994 -13.7803 -171.944
lowerback -12.9431 -4.29257 4.19481
upperback -0.0460352 -7.02766 4.85523
thorax 7.33505 -3.50238 1.44424
lowerneck 3.06049 -2.71017 -6.59327
upperneck -7.55172 -3.29101 7.82056
head -2.75382 -1.63521 3.90336
rclavicle -4.68883e-014 -4.77083e-015
rhumerus -36.6792 -19.2935 -75.4921
rradius 30.2876
rwrist 28.6159
rhand 0.175116 -7.63971
rfingers 7.12502
rthumb 25.7581 -35.9163
lclavicle -4.68883e-014 -4.77083e-015
lhumerus -37.4132 40.4341 68.6844
lradius 11.8331
lwrist -56.1355
lhand -13.3841 7.02475
lfingers 7.12502
lthumb 12.7229 36.6171
rfemur -29.953 -6.2148 31.3578
rtibia 22.5952
rfoot -11.2567 13.9823
rtoes 10.3581
lfemur 2.0558 -7.09155 -7.07197
ltibia 19.1716
lfoot 3.02565 -15.9736
ltoes 1.51792
458
root 1.60118 16.537 -25.9722 -171.047 -13.49 -172.114
lowerback -12.6853 -4.17493 4.13884
upperback 0.0262983 -6.81948 4.71055
thorax 7.25259 -3.39472 1.38001
lowerneck 3.03858 -2.75047 -6.58158
upperneck -7.90232 -3.3096 7.84438
head -2.86701 -1.63701 3.91948
rclavicle -4.19187e-014 -1.90833e-014
rhumerus -35.9181 -18.6451 -76.2264
rradius 30.5133
rwrist 27.6482
rhand -0.0676003 -7.79427
rfingers 7.12502
rthumb 25.5256 -36.1043
lclavicle -4.19187e-014 -1.90833e-014
lhumerus -36.8949 39.2858 69.432
lradius 12.203
lwrist -54.9376
lhand -13.4721 7.10541
lfingers 7.12502
lthumb 12.6381 36.7031
rfemur -29.4865 -6.01607 31.2973
rtibia 22.7439
rfoot -11.863 14.128
rtoes 11.4743
lfemur 2.42475 -7.12238 -7.13299
ltibia 19.2961
lfoot 3.80133 -15.8696
ltoes 1.79204
459
root 1.63534 16.5435 -26.0661 -170.842 -13.4779 -172.179
lowerback -12.7797 -4.12473 4.13464
upperback 0.0237112 -6.7465 4.63571
thorax 7.2932 -3.35376 1.30989
lowerneck 2.92023 -2.74504 -6.70291
upperneck -8.36383 -3.23079 8.25074
head -2.6937 -1.61989 3.68355
rclavicle 3.73964e-014 5.12864e-014
rhumerus -35.1612 -17.7519 -76.9965
rradius 30.6263
rwrist 26.5142
rhand -0.480948 -7.96369
rfingers 7.12502
rthumb 25.1296 -36.3298
lclavicle 3.73964e-014 5.12864e-014
lhumerus -36.2881 38.2209 70.1955
lradius 12.4515
lwrist -53.5056
lhand -13.5534 7.21558
lfingers 7.12502
lthumb 12.5597 36.8181
rfemur -29.4636 -6.23166 31.5057
rtibia 22.9013
rfoot -12.0688 14.4816
rtoes 12.512
lfemur 2.37511 -7.26703 -6.99555
ltibia 19.4171
lfoot 4.57347 -15.7346
ltoes 1.69876
460
root 1.667 16.5598 -26.1532 -170.303 -13.6245 -172.199
lowerback -13.2894 -4.09853 4.1845
upperback -0.0450974 -6.75327 4.60812
thorax 7.49773 -3.35003 1.21452
lowerneck 2.931 -2.74738 -6.55896
upperneck -8.68854 -3.2038 8.14384
head -2.79853 -1.60121 3.63192
rclavicle -1.1281e-014 1.90833e-014
rhumerus -34.4122 -17.2511 -77.5737
rradius 30.6545
rwrist 26.0539
rhand -0.602398 -8.08831
rfingers 7.12502
rthumb 25.0133 -36.4707
lclavicle -1.1281e-014 1.90833e-014
lhumerus -35.4666 37.1022 71.1512
lradius 12.625
lwrist -51.7957
lhand -13.5447 7.40271
lfingers 7.12502
lthumb 12.5681 37.0047
rfemur -29.8621 -6.31852 31.7319
rtibia 23.0795
rfoot -12.1058 14.6786
rtoes 13.6833
lfemur 1.88325 -7.3993 -6.74748
ltibia 19.5024
lfoot 5.18438 -15.4775
ltoes 0.57679
